<svg width="26" height="26" viewBox="0 0 26 26" fill="none" xmlns="http://www.w3.org/2000/svg">
<g clip-path="url(#clip0_39_281)">
<path d="M13.3396 12.977C13.3826 12.9613 13.4282 12.9496 13.4739 12.9366C13.3582 12.6801 13.2369 12.4261 13.11 12.1749C10.6582 12.9014 8.31069 12.9079 7.89205 12.9014C7.88814 12.934 7.88814 12.9679 7.88814 13.0005C7.88814 14.2329 8.33155 15.4171 9.13753 16.347C9.40619 15.914 10.8303 13.7895 13.3396 12.977ZM9.90047 17.0603C10.6098 17.6039 11.4495 17.9517 12.3354 18.0689C13.2214 18.1861 14.1226 18.0686 14.9489 17.7281C14.7093 16.4276 14.3505 15.1519 13.8769 13.9173C11.1107 14.8954 10.0661 16.7369 9.90047 17.0603ZM16.3326 9.12318C15.7298 8.60538 15.0146 8.23523 14.2437 8.04212C13.4729 7.84902 12.6677 7.83826 11.8919 8.01073C12.5726 8.93544 13.1916 9.90392 13.7451 10.9099C15.4184 10.2669 16.1748 9.33967 16.3326 9.12318ZM12.6157 11.2581C12.0536 10.2724 11.4376 9.31849 10.7703 8.40067C10.0815 8.73631 9.47651 9.22183 8.99968 9.82164C8.52285 10.4215 8.18628 11.1204 8.01464 11.8671H8.03681C8.5663 11.8671 10.4482 11.8241 12.6157 11.2581ZM14.975 13.6473C15.5814 15.3336 15.8605 16.7343 15.9401 17.1829C17.0515 16.3993 17.8063 15.2064 18.0385 13.8664C17.3631 13.6746 16.6643 13.5776 15.9622 13.5782C15.6258 13.5782 15.2932 13.6017 14.975 13.6473ZM13.0005 0.480469C6.08578 0.480469 0.480469 6.08578 0.480469 13.0005C0.480469 19.9152 6.08578 25.5205 13.0005 25.5205C19.9152 25.5205 25.5205 19.9152 25.5205 13.0005C25.5205 6.08578 19.9152 0.480469 13.0005 0.480469ZM13.0005 19.1261C11.376 19.1248 9.81847 18.479 8.66957 17.3306C7.52067 16.1822 6.87426 14.6249 6.87219 13.0005C6.87357 11.3756 7.51967 9.81762 8.66865 8.66865C9.81762 7.51967 11.3756 6.87357 13.0005 6.87219C14.625 6.87426 16.1824 7.52062 17.3311 8.66949C18.4797 9.81835 19.1257 11.3759 19.1274 13.0005C19.1257 14.6248 18.4796 16.1821 17.3309 17.3305C16.1822 18.479 14.6248 19.1248 13.0005 19.1261ZM14.2029 11.7928C14.3164 12.0276 14.422 12.2584 14.5185 12.4853L14.6111 12.707C14.9724 12.664 15.3584 12.6431 15.7614 12.6431C16.5496 12.6447 17.3359 12.7198 18.1102 12.8674C18.0804 11.7566 17.6905 10.6856 16.999 9.81569C16.7904 10.0844 15.9322 11.0716 14.2029 11.7928Z" fill="#1AD550"/>
</g>
<defs>
<clipPath id="clip0_39_281">
<rect width="26" height="26" fill="white"/>
</clipPath>
</defs>
</svg>
