<svg width="26" height="26" viewBox="0 0 26 26" fill="none" xmlns="http://www.w3.org/2000/svg">
<g clip-path="url(#clip0_39_278)">
<path d="M13.0005 0.520508C6.10791 0.520508 0.520508 6.10791 0.520508 13.0005C0.520508 19.8931 6.10791 25.4805 13.0005 25.4805C19.8931 25.4805 25.4805 19.8931 25.4805 13.0005C25.4805 6.10791 19.8931 0.520508 13.0005 0.520508ZM18.077 10.7437C18.0822 10.8503 18.0835 10.9569 18.0835 11.0609C18.0835 14.3109 15.6122 18.0562 11.0908 18.0562C9.75479 18.0584 8.44656 17.6747 7.32341 16.9512C7.51451 16.9746 7.71081 16.9837 7.90971 16.9837C9.06151 16.9837 10.121 16.5924 10.9621 15.932C10.4495 15.9219 9.95288 15.7522 9.54135 15.4465C9.12982 15.1407 8.82393 14.7142 8.66631 14.2264C9.03441 14.2964 9.41361 14.2817 9.77521 14.1835C9.21887 14.071 8.71856 13.7696 8.35913 13.3303C7.99969 12.891 7.80325 12.3409 7.80311 11.7733V11.7434C8.13461 11.9267 8.51421 12.0385 8.91721 12.0515C8.39565 11.7043 8.02643 11.171 7.88507 10.5606C7.7437 9.95018 7.84087 9.30884 8.15671 8.76771C8.77415 9.52691 9.54415 10.148 10.4168 10.5907C11.2895 11.0334 12.2455 11.288 13.2228 11.3378C13.0986 10.8104 13.152 10.2567 13.3749 9.76286C13.5978 9.26899 13.9776 8.86259 14.4553 8.60685C14.933 8.35111 15.4818 8.26035 16.0164 8.34868C16.551 8.43701 17.0414 8.69949 17.4114 9.09531C17.9615 8.98647 18.4891 8.78468 18.9714 8.49861C18.7881 9.06818 18.4042 9.55184 17.8911 9.85971C18.3784 9.80101 18.8542 9.67001 19.3029 9.47101C18.9733 9.96487 18.5582 10.3959 18.077 10.7437Z" fill="#1AD550"/>
</g>
<defs>
<clipPath id="clip0_39_278">
<rect width="26" height="26" fill="white"/>
</clipPath>
</defs>
</svg>
