<svg width="26" height="26" viewBox="0 0 26 26" fill="none" xmlns="http://www.w3.org/2000/svg">
<g clip-path="url(#clip0_39_279)">
<path d="M13.0005 0.520508C6.10791 0.520508 0.520508 6.10791 0.520508 13.0005C0.520508 19.8931 6.10791 25.4805 13.0005 25.4805C19.8931 25.4805 25.4805 19.8931 25.4805 13.0005C25.4805 6.10791 19.8931 0.520508 13.0005 0.520508ZM9.94551 18.1732H7.41831V10.0404H9.94551V18.1732ZM8.66631 9.04201C7.86811 9.04201 7.35201 8.47651 7.35201 7.77711C7.35201 7.06341 7.88371 6.51481 8.69881 6.51481C9.51391 6.51481 10.0131 7.06341 10.0287 7.77711C10.0287 8.47651 9.51391 9.04201 8.66631 9.04201ZM19.1755 18.1732H16.6483V13.6661C16.6483 12.617 16.2817 11.9046 15.3678 11.9046C14.6697 11.9046 14.255 12.3869 14.0717 12.851C14.0041 13.0161 13.9872 13.2501 13.9872 13.4828V18.1719H11.4587V12.6339C11.4587 11.6186 11.4262 10.7697 11.3924 10.0391H13.5881L13.7038 11.1688H13.7545C14.0873 10.6384 14.9024 9.85581 16.2661 9.85581C17.9288 9.85581 19.1755 10.9699 19.1755 13.3645V18.1732Z" fill="#1AD550"/>
</g>
<defs>
<clipPath id="clip0_39_279">
<rect width="26" height="26" fill="white"/>
</clipPath>
</defs>
</svg>
