<svg width="26" height="26" viewBox="0 0 26 26" fill="none" xmlns="http://www.w3.org/2000/svg">
<g clip-path="url(#clip0_39_280)">
<path d="M15.0844 12.7834L12.1646 11.421C11.9098 11.3027 11.7005 11.4353 11.7005 11.7174V14.2836C11.7005 14.5657 11.9098 14.6983 12.1646 14.58L15.0831 13.2176C15.3392 13.098 15.3392 12.903 15.0844 12.7834ZM13.0005 0.520508C6.10791 0.520508 0.520508 6.10791 0.520508 13.0005C0.520508 19.8931 6.10791 25.4805 13.0005 25.4805C19.8931 25.4805 25.4805 19.8931 25.4805 13.0005C25.4805 6.10791 19.8931 0.520508 13.0005 0.520508ZM13.0005 18.0705C6.61231 18.0705 6.50051 17.4946 6.50051 13.0005C6.50051 8.50641 6.61231 7.93051 13.0005 7.93051C19.3887 7.93051 19.5005 8.50641 19.5005 13.0005C19.5005 17.4946 19.3887 18.0705 13.0005 18.0705Z" fill="#1AD550"/>
</g>
<defs>
<clipPath id="clip0_39_280">
<rect width="26" height="26" fill="white"/>
</clipPath>
</defs>
</svg>
